<svg width="600" height="600" viewBox="0 0 600 600" fill="none" xmlns="http://www.w3.org/2000/svg">
<path d="M342.978 123.778C323.105 92.0741 276.901 92.0741 257.028 123.778L69.8531 422.349C48.6734 456.112 72.9685 500 112.815 500H135.201L135.276 499.899L291.75 249.185C298.91 237.654 344.887 171.258 403 219.542L342.953 123.778H342.978Z" fill="url(#paint0_linear_1_4779)"/>
<g style="mix-blend-mode:overlay">
<path d="M74.6267 429.659L261.827 131.088C278.585 104.384 316.547 100.188 339.184 118.527C317.728 92.2248 275.746 93.9582 257.028 123.803L69.8531 422.349C55.2811 445.586 62.2405 473.597 80.9831 488.821C68.019 472.944 62.1902 449.556 74.6518 429.659H74.6267Z" fill="white" fill-opacity="0.5"/>
</g>
<g style="mix-blend-mode:multiply">
<path d="M137.313 496.533L291.676 249.21C298.836 237.679 344.814 171.283 402.926 219.567L356.145 144.955C325.468 131.992 290.721 157.566 277.958 177.94L117.716 433.553C102.893 457.193 114.098 486.61 137.338 496.558L137.313 496.533Z" fill="url(#paint1_linear_1_4779)"/>
</g>
<path d="M81.6615 403.507L69.8531 422.349C48.6734 456.112 72.9685 500 112.815 500H487.191C527.063 500 551.333 456.137 530.153 422.349L518.345 403.507H200.273C186.706 403.507 116.609 406.07 126.96 331.232L81.6615 403.507Z" fill="url(#paint2_linear_1_4779)"/>
<g style="mix-blend-mode:overlay">
<path d="M530.152 422.349L518.344 403.507H200.272C186.705 403.507 116.609 406.07 126.96 331.232C126.96 331.232 95.4039 411.597 189.971 411.597H508.043L519.851 430.438C533.243 451.816 528.419 477.24 512.993 493.016C536.132 479.3 546.207 447.948 530.152 422.349Z" fill="white"/>
</g>
<g style="mix-blend-mode:multiply">
<path d="M488.22 470.231L476.412 451.389H158.315C146.105 451.389 88.1935 453.424 84.2239 399.387L81.6361 403.507L69.8277 422.349C48.648 456.112 72.9431 500 112.79 500H487.165C490.205 500 493.12 499.723 495.959 499.246C496.386 489.574 494.024 479.526 488.195 470.256L488.22 470.231Z" fill="url(#paint3_linear_1_4779)"/>
</g>
<path d="M530.153 422.349L402.999 219.542C355.163 179.824 315.567 217.758 299.061 238.86L394.306 389.892C410.587 415.616 431.993 476.335 360.188 499.849L488.246 499.975C527.464 499.196 551.131 455.836 530.153 422.374V422.349Z" fill="url(#paint4_linear_1_4779)"/>
<g style="mix-blend-mode:overlay">
<path d="M403 219.542C397.473 214.944 392.046 211.427 386.77 208.764L521.134 422.349C542.087 455.761 516.008 499.045 476.915 499.95H488.271C527.49 499.196 551.157 455.811 530.179 422.349L403.025 219.542H403Z" fill="white" fill-opacity="0.5"/>
</g>
<g style="mix-blend-mode:multiply">
<path d="M332.174 209.719C317.627 217.507 306.196 229.741 299.061 238.835L394.306 389.867C410.587 415.591 431.993 476.31 360.188 499.824L418.526 499.874C457.142 498.367 485.206 449.631 459.981 409.637L332.174 209.694V209.719Z" fill="url(#paint5_linear_1_4779)"/>
</g>
<defs>
<linearGradient id="paint0_linear_1_4779" x1="320.853" y1="143.444" x2="237.44" y2="483.091" gradientUnits="userSpaceOnUse">
<stop stop-color="#2D66C4"/>
<stop offset="0.587478" stop-color="#2D66C4"/>
<stop offset="1" stop-color="#FFC700"/>
</linearGradient>
<linearGradient id="paint1_linear_1_4779" x1="178.841" y1="409.361" x2="318.82" y2="175.166" gradientUnits="userSpaceOnUse">
<stop stop-color="#FFC348"/>
<stop offset="1" stop-color="#050B8C" stop-opacity="0"/>
</linearGradient>
<linearGradient id="paint2_linear_1_4779" x1="409.997" y1="451.952" x2="62.0254" y2="451.952" gradientUnits="userSpaceOnUse">
<stop stop-color="#A70CBA"/>
<stop offset="0.5" stop-color="#FFC700"/>
</linearGradient>
<linearGradient id="paint3_linear_1_4779" x1="407.037" y1="479.001" x2="62.0137" y2="479.001" gradientUnits="userSpaceOnUse">
<stop stop-color="#F201F6"/>
<stop offset="1" stop-color="#FFC701" stop-opacity="0"/>
</linearGradient>
<linearGradient id="paint4_linear_1_4779" x1="340.674" y1="288.465" x2="420.452" y2="499.866" gradientUnits="userSpaceOnUse">
<stop stop-color="#2D66C4"/>
<stop offset="0.404959" stop-color="#9500FF"/>
<stop offset="1" stop-color="#F200F1"/>
</linearGradient>
<linearGradient id="paint5_linear_1_4779" x1="336.532" y1="277.007" x2="492.022" y2="500.014" gradientUnits="userSpaceOnUse">
<stop stop-color="#2D66C4"/>
<stop offset="1" stop-color="#F201F6" stop-opacity="0"/>
</linearGradient>
</defs>
</svg>
